<?xml version="1.0" encoding="UTF-8" standalone="no"?>
<svg
   xmlns:dc="http://purl.org/dc/elements/1.1/"
   xmlns:cc="http://creativecommons.org/ns#"
   xmlns:rdf="http://www.w3.org/1999/02/22-rdf-syntax-ns#"
   xmlns:svg="http://www.w3.org/2000/svg"
   xmlns="http://www.w3.org/2000/svg"
   xmlns:sodipodi="http://sodipodi.sourceforge.net/DTD/sodipodi-0.dtd"
   xmlns:inkscape="http://www.inkscape.org/namespaces/inkscape"
   width="100%"
   height="100%"
   viewBox="0 0 512 60"
   version="1.1"
   xml:space="preserve"
   style="fill-rule:evenodd;clip-rule:evenodd;stroke-linecap:round;stroke-linejoin:round;stroke-miterlimit:1.5;"
   id="svg4141"
   inkscape:version="0.91+devel+osxmenu r12922"
   sodipodi:docname="pkp-intercity.svg"><metadata
     id="metadata4157"><rdf:RDF><cc:Work
         rdf:about=""><dc:format>image/svg+xml</dc:format><dc:type
           rdf:resource="http://purl.org/dc/dcmitype/StillImage" /><dc:title></dc:title></cc:Work></rdf:RDF></metadata><defs
     id="defs4155" /><sodipodi:namedview
     pagecolor="#ffffff"
     bordercolor="#666666"
     borderopacity="1"
     objecttolerance="10"
     gridtolerance="10"
     guidetolerance="10"
     inkscape:pageopacity="0"
     inkscape:pageshadow="2"
     inkscape:window-width="1676"
     inkscape:window-height="1006"
     id="namedview4153"
     showgrid="false"
     inkscape:zoom="1"
     inkscape:cx="510"
     inkscape:cy="30"
     inkscape:window-x="4"
     inkscape:window-y="22"
     inkscape:window-maximized="0"
     inkscape:current-layer="svg4141" /><path
     d="M197.98,32.233l-11.873,0.015l-4.92,10.774l-5.556,0l13.739,-30.085l18.43,0.001c9.917,0.071 2.481,19.365 -9.82,19.295Zm26.848,-19.296l-13.739,30.085l-5.884,0l13.739,-30.085l5.884,0Zm31.642,19.296l-11.873,0.015l-4.92,10.774l-5.556,0l13.739,-30.085l18.43,0.001c9.917,0.071 2.481,19.365 -9.82,19.295Zm42.335,-19.296l-13.739,30.085l-6.432,0l13.739,-30.085l6.432,0Zm16.804,22.26l10.166,-22.26l6.008,0l-13.739,30.085l-7.592,0l-1.962,-23.691l-10.819,23.691l-6.008,0l13.739,-30.085l8.364,0l1.843,22.26Zm19.103,-22.259l26.165,0l-2.249,4.924l-10.1,0l-11.49,25.16l-6.366,0l11.489,-25.156l-9.699,-0.002l2.25,-4.926Zm28.485,-0.001l22.169,0l-2.254,4.936l-16.115,0l-3.183,6.956l13.922,0.009l-2.251,4.93l-13.926,0l-3.796,8.312l16.12,0.001l-2.256,4.941l-22.169,0l13.739,-30.085Zm40.671,30.073l-6.726,0l-0.617,-12.015l-8.923,0.013l-5.487,12.014l-5.556,0l13.739,-30.085l16.778,-0.035c12.525,-0.033 5.242,14.751 -5.256,17.614l2.048,12.494Zm51.02,-30.073l-13.739,30.085l-6.432,0l13.739,-30.085l6.432,0Zm-23.797,0l13.297,0l-2.254,4.936l-12.828,0c-8.655,0.135 -15.132,20.237 -9.892,20.207l13.492,0.001l-2.257,4.941l-12.968,0c-15.141,0.019 -2.65,-30.169 13.41,-30.085Zm26.516,0.001l29.666,-0.001l2.121,12.14l13.124,-12.14l7.482,0l-19.779,17.084l-5.938,13.001l-6.202,0l5.946,-13.021l-2.494,-12.161l-0.01,0.022l-10.1,0l-11.49,25.16l-6.366,0l11.488,-25.156l-9.698,-0.002l2.25,-4.926Zm-212.735,-0.001l-19.461,15.054l4.921,15.031l-7.281,0l-4.941,-15.367l19.563,-14.718l7.199,0Zm-52.193,4.922l-4.395,9.624l11.076,-0.015c4.532,0.009 9.599,-9.528 3.94,-9.595l-10.621,-0.014Zm58.49,0l-4.395,9.624l11.076,-0.015c4.532,0.009 9.599,-9.528 3.94,-9.595l-10.621,-0.014Zm142.438,0l-3.743,8.195l11.018,-0.015c4.531,0.009 8.946,-8.099 3.287,-8.166l-10.562,-0.014Z"
     style="fill:#fff;"
     id="path4143" /><path
     d="M125.417,1.048c0.925,-0.124 1.982,-0.172 3.214,-0.164l27.401,0c7.403,0.878 5.453,9.985 2.571,12.359l-18.451,0c-3.464,0.121 -4.28,1.087 -5.727,3.77l-11.142,24.397c-1.215,3.01 -1.697,4.985 2.626,5.02l19.056,0c-1.411,4.457 -6.087,12.708 -8.929,12.687l-31.025,0c-0.113,-0.002 -0.224,-0.006 -0.333,-0.011c-0.063,0.008 -0.126,0.011 -0.187,0.011l-31.026,0c-9.638,-0.176 -6.054,-10.158 -5.378,-11.599l16.99,-37.204c3.609,-7.655 4.898,-9.478 12.009,-9.43l27.401,0c0.328,0.039 0.638,0.094 0.93,0.164Zm-31.053,45.382l5.765,0l15.156,-33.187l-6.679,0c-3.464,0.121 -4.279,1.087 -5.726,3.77l-11.142,24.397c-1.215,3.01 -1.697,4.985 2.626,5.02Z"
     style="fill:#fff;"
     id="path4145" /><path
     d="M156.032,0.884c7.403,0.878 5.453,9.986 2.571,12.359l-18.451,0c-3.464,0.121 -4.28,1.087 -5.727,3.77l-11.142,24.397c-1.215,3.01 -1.697,4.985 2.626,5.02l19.056,0c-1.411,4.457 -6.087,12.709 -8.929,12.687l-31.025,0c-9.638,-0.176 -6.055,-10.158 -5.379,-11.599l16.99,-37.204c3.609,-7.656 4.898,-9.478 12.009,-9.43l27.401,0Z"
     style="fill:none;stroke:#00579c;stroke-width:0.68px;"
     id="path4147" /><path
     d="M124.487,0.884c7.403,0.878 5.452,9.986 2.571,12.359l-18.452,0c-3.464,0.121 -4.279,1.087 -5.726,3.77l-11.142,24.397c-1.215,3.01 -1.697,4.985 2.626,5.02l19.056,0c-1.411,4.457 -6.087,12.709 -8.929,12.687l-31.026,0c-9.638,-0.176 -6.054,-10.158 -5.378,-11.599l16.99,-37.204c3.609,-7.656 4.898,-9.478 12.009,-9.43l27.401,0Z"
     style="fill:none;stroke:#00579c;stroke-width:1.03px;"
     id="path4149" /><path
     d="M22.862,59.117l-20.862,0l17.834,-39.053l20.862,0l-17.834,39.053Zm50.084,0l-31.026,0c-9.638,-0.176 -6.054,-10.158 -5.378,-11.599l16.99,-37.204c3.609,-7.655 4.898,-9.478 12.009,-9.43l27.401,0c7.402,0.878 5.452,9.985 2.571,12.359l-18.452,0c-3.464,0.121 -4.279,1.087 -5.726,3.77l-11.142,24.397c-1.215,3.01 -1.697,4.985 2.626,5.02l19.056,0c-1.411,4.457 -6.087,12.708 -8.929,12.687Zm-29.135,-45.874l-20.862,0l5.644,-12.359l20.862,0l-5.644,12.359Z"
     style="fill:#e16521;stroke:#00579c;stroke-width:1.31px;"
     id="path4151" /></svg>
